<?xml version="1.0" standalone="no"?>
<!DOCTYPE svg PUBLIC "-//W3C//DTD SVG 20010904//EN"
 "http://www.w3.org/TR/2001/REC-SVG-20010904/DTD/svg10.dtd">
<svg version="1.0" xmlns="http://www.w3.org/2000/svg"
 width="260.000000pt" height="260.000000pt" viewBox="0 0 260.000000 260.000000"
 preserveAspectRatio="xMidYMid meet">
<metadata>
Created by potrace 1.11, written by Peter Selinger 2001-2013
</metadata>
<g transform="translate(0.000000,260.000000) scale(0.100000,-0.100000)"
fill="#000000" stroke="none">
<path d="M592 1693 c2 -10 18 -21 38 -26 68 -17 70 -22 70 -202 l0 -161 -49
-18 c-33 -12 -51 -24 -55 -39 -8 -33 6 -39 53 -22 24 8 45 15 47 15 2 0 4 -53
4 -119 0 -137 -10 -159 -80 -180 -24 -7 -40 -17 -37 -24 3 -9 126 -13 495 -15
412 -2 492 0 492 12 0 7 -21 21 -46 31 -27 10 -49 26 -53 39 -14 35 -24 293
-13 300 12 7 294 -304 289 -319 -2 -5 -18 -16 -35 -24 -18 -8 -32 -21 -32 -28
0 -19 371 -14 377 4 3 8 -13 17 -41 24 -25 6 -58 21 -74 33 -37 27 -362 373
-362 384 0 5 54 61 119 125 125 121 176 155 275 180 65 17 74 23 60 37 -16 16
-336 8 -341 -7 -3 -7 12 -19 31 -27 20 -8 36 -19 36 -25 0 -24 -286 -325 -301
-315 -14 8 -11 275 4 303 7 15 29 30 55 39 83 27 46 37 -139 37 -146 0 -174
-2 -174 -15 0 -8 18 -19 45 -27 25 -7 51 -21 58 -30 9 -13 12 -95 12 -329 0
-343 0 -345 -62 -360 -32 -7 -32 -7 -13 66 18 69 19 100 2 100 -8 0 -19 -12
-26 -27 -50 -112 -95 -136 -249 -131 -74 2 -115 7 -124 16 -10 9 -13 54 -13
164 l0 151 86 31 c96 35 119 50 119 77 0 26 -15 24 -110 -11 -45 -16 -86 -30
-91 -30 -5 0 -9 58 -9 134 0 155 0 156 86 181 100 29 66 40 -140 43 -172 2
-187 1 -184 -15z"/>
</g>
</svg>
